# xmcd
#
# Track frame offsets:
#	150
#	20739
#	46581
#	66198
#	96377
#	115352
#	151955
#	176825
#	201738
#	221707
#	243574
#
# Disc length: 3569 seconds
#
# Revision: 0
# Processed by: cddbd v1.4PL0 Copyright (c) Steve Scherf et al.
# Submitted via: dBpowerAMP V4.0
#
DISCID=a70def0b
DTITLE=Shane Theriot - Highway 90
DYEAR=2000
DGENRE=Blues
TTITLE0=It Ain't My Fault
TTITLE1=Pump
TTITLE2=Trashy
TTITLE3=Highway 90
TTITLE4=The Street Beater (theme from "Sanford and Son")
TTITLE5=Punch
TTITLE6=Shiho
TTITLE7=1321 N. Las Palmas
TTITLE8=Stampy
TTITLE9=Bayou Chicken
TTITLE10=Cabildo Breeze
EXTD=
EXTT0=
EXTT1=
EXTT2=
EXTT3=
EXTT4=
EXTT5=
EXTT6=
EXTT7=
EXTT8=
EXTT9=
EXTT10=
PLAYORDER=
